# xmcd
#
# Track frame offsets: 
#        150
#        11476
#        25320
#        40644
#        54954
#        66244
#        78800
#        91777
#        105170
#        118752
#        131742
#        147093
#        160636
#        173781
#        187320
#        201635
#        215973
#        226299
#        239529
#        254661
#        268495
#        281551
#        294332
#        306584
#        318669
#        332365
#
# Disc length: 4629 seconds
#
# Revision: 3
# Processed by: cddbd v1.5.2PL0 Copyright (c) Steve Scherf et al.
# Submitted via: ExactAudioCopyFreeDBPlugin 1.0
#
DISCID=8612131a
DTITLE=Various Artist - Roots of Rock [ABM MCD1253]
DYEAR=2000
DGENRE=Blues
TTITLE0=Blind Willie McTell - Statesboro' Blues
TTITLE1=Mississippi Sheiks - Sitting on Top of the World
TTITLE2=Henry Thomas - Bull Doze Blues
TTITLE3=Kansas Joe and Memphis Minnie - When the Levee Breaks
TTITLE4=Robert Johnson - Walkin' Blues
TTITLE5=Bessie Smith - Nobody Knows You When You're Down and Out
TTITLE6=Robert Wilkins - That's No Way to Get Along
TTITLE7=Blind Blake - Diddie Wa Diddie
TTITLE8=Sonny Boy Williamson - Good Morning Little Schoolgirl
TTITLE9=Skip James - I'm So Glad
TTITLE10=Big Joe Williams - Baby Please Don't Go
TTITLE11=Clara Smith - Don't Advertise You're Man
TTITLE12=Blind Joe Reynolds - Outside Woman Blues
TTITLE13=Bukka White - Shake 'Em on Down
TTITLE14=Kokomo Arnold - Milk Cow Blues (Part 1)
TTITLE15=Charley Patton - A Spoonful Blues
TTITLE16=Robert Johnson - Stop Breaking Down Blues
TTITLE17=Cannon's Jug Stompers - Walk Right In
TTITLE18=Tommy Johnson - Big Road Blues
TTITLE19=Blind Blake - That Will Never Happen No More
TTITLE20=Robert Petway - Catfish Blues
TTITLE21=Big Joe Williams - Crawlin' King Snake
TTITLE22=Memphis Minnie - Me and My Chauffeur
TTITLE23=Robert Johnson - Cross Roads
TTITLE24=Big Bill Broonzy - Key to the Highway
TTITLE25=Bo Carter - Corrine, Corrina
EXTD=
EXTT0=
EXTT1=
EXTT2=
EXTT3=
EXTT4=
EXTT5=
EXTT6=
EXTT7=
EXTT8=
EXTT9=
EXTT10=
EXTT11=
EXTT12=
EXTT13=
EXTT14=
EXTT15=
EXTT16=
EXTT17=
EXTT18=
EXTT19=
EXTT20=
EXTT21=
EXTT22=
EXTT23=
EXTT24=
EXTT25=
PLAYORDER=
